<?xml version="1.0" encoding="UTF-8"?>
<svg width="110px" height="103px" viewBox="0 0 110 103" version="1.1" xmlns="http://www.w3.org/2000/svg" xmlns:xlink="http://www.w3.org/1999/xlink">
    <!-- Generator: Sketch 47 (45396) - http://www.bohemiancoding.com/sketch -->
    <title>Artboard Copy 2</title>
    <desc>Created with Sketch.</desc>
    <defs>
        <filter x="-55.6%" y="-55.6%" width="211.1%" height="211.1%" filterUnits="objectBoundingBox" id="filter-1">
            <feGaussianBlur stdDeviation="10" in="SourceGraphic"></feGaussianBlur>
        </filter>
    </defs>
    <g id="r" stroke="none" stroke-width="1" fill="none" fill-rule="evenodd">
        <g id="Artboard-Copy-2">
            <rect id="Rectangle{:linearEase;3,35,46,80,58,360,1;}" fill="#00A4B3" x="15" y="31" width="80" height="58" rx="1"></rect>
            <rect id="Rectangle-4-Copy" fill="#F4CD27" x="23" y="44" width="29" height="29" rx="1"></rect>
            <rect id="Rectangle-4-Copy" fill="#F4CD27" opacity="0.222316576" filter="url(#filter-1)" x="12" y="35" width="54" height="54" rx="1"></rect>
            <rect id="Rectangle-6{:linearEase;3,85,67,23,37,360,1;}" fill="#32636C" x="65" y="52" width="23" height="37" rx="1"></rect>
            <path d="M19.3436828,15 L88.6560678,15 L88.6560678,15 C89.0511073,15 89.4091229,15.2325599 89.5697122,15.5934856 L98.913395,36.5934856 L98.913395,36.5934856 C99.1379067,37.0980774 98.9108569,37.6891326 98.4062651,37.9136444 C98.2783028,37.9705796 98.1398077,38 97.9997507,38 L10,38 L10,38 C9.44771525,38 9,37.5522847 9,37 C9,36.859943 9.02942044,36.7214479 9.08635564,36.5934856 L18.4300385,15.5934856 L18.4300385,15.5934856 C18.5906277,15.2325599 18.9486433,15 19.3436828,15 Z" id="Rectangle-5{:linearEase;3,29,30,89.92,23,360,1;}" fill="#40616B"></path>
        </g>
    </g>
</svg>